<svg xmlns="http://www.w3.org/2000/svg" viewBox="0 0 320 80" width="320" height="80">
  <defs>
    <style>
      .logo-text {
        font-family: 'Arial', 'Helvetica', sans-serif;
        font-weight: 700;
        fill: white;
        letter-spacing: -0.5px;
      }
      .logo-icon {
        fill: white;
      }
    </style>
  </defs>
  
  <!-- Creative Geometric S Icon - Dynamic benchmark symbol -->
  <g transform="translate(15, 15)">
    <!-- Main S structure with performance graph elements -->
    <!-- Top ascending bar (like performance metrics) -->
    <rect x="0" y="5" width="40" height="10" class="logo-icon"/>
    <rect x="40" y="0" width="10" height="20" class="logo-icon"/>
    
    <!-- Performance step indicators -->
    <rect x="6" y="0" width="3" height="5" class="logo-icon"/>
    <rect x="12" y="-2" width="3" height="7" class="logo-icon"/>
    <rect x="18" y="-4" width="3" height="9" class="logo-icon"/>
    <rect x="24" y="-6" width="3" height="11" class="logo-icon"/>
    
    <!-- Central connection with data flow concept -->
    <rect x="12" y="20" width="26" height="6" class="logo-icon"/>
    <!-- Data nodes -->
    <circle cx="16" cy="23" r="1.5" class="logo-icon"/>
    <circle cx="25" cy="23" r="1.5" class="logo-icon"/>
    <circle cx="34" cy="23" r="1.5" class="logo-icon"/>
    
    <!-- Bottom descending bar (completing the S) -->
    <rect x="0" y="30" width="10" height="20" class="logo-icon"/>
    <rect x="10" y="45" width="40" height="10" class="logo-icon"/>
    
    <!-- Benchmark indicators -->
    <rect x="43" y="48" width="3" height="5" class="logo-icon"/>
    <rect x="37" y="50" width="3" height="7" class="logo-icon"/>
    <rect x="31" y="52" width="3" height="9" class="logo-icon"/>
    <rect x="25" y="54" width="3" height="11" class="logo-icon"/>
  </g>
  
  <!-- Typography - Horizontally aligned -->
  <text x="90" y="50" class="logo-text" font-size="32">SychoBench</text>
</svg>